<?xml version="1.0" standalone="no"?>
<!DOCTYPE svg PUBLIC "-//W3C//DTD SVG 20010904//EN"
 "http://www.w3.org/TR/2001/REC-SVG-20010904/DTD/svg10.dtd">
<svg version="1.0" xmlns="http://www.w3.org/2000/svg"
 width="575.000000pt" height="520.000000pt" viewBox="0 0 575.000000 520.000000"
 preserveAspectRatio="xMidYMid meet">

<g transform="translate(0.000000,520.000000) scale(0.100000,-0.100000)"
fill="#000000" stroke="none">
<path d="M0 2600 l0 -2600 2875 0 2875 0 0 2600 0 2600 -2875 0 -2875 0 0
-2600z m2696 2018 c25 -11 48 -27 51 -34 3 -7 -2 -33 -11 -56 -12 -35 -17
-141 -26 -603 -5 -308 -10 -620 -10 -692 0 -100 -3 -133 -12 -132 -7 0 -33 24
-58 52 l-45 52 -29 185 c-15 102 -57 367 -92 589 -35 223 -64 429 -64 458 0
154 154 248 296 181z m313 -56 c54 -40 53 -26 47 -592 -4 -289 -9 -646 -13
-794 -5 -248 -5 -268 11 -259 15 8 80 70 371 352 66 64 242 233 390 376 149
142 285 274 304 293 81 81 154 95 216 41 74 -66 65 -145 -28 -235 -28 -28
-280 -270 -559 -538 -280 -268 -508 -491 -508 -495 0 -8 238 -15 1082 -31 536
-10 530 -9 568 -73 29 -47 26 -108 -7 -148 -51 -60 -28 -58 -713 -43 -344 8
-697 13 -785 12 l-160 -3 120 -124 c66 -69 134 -139 150 -156 82 -86 546 -567
666 -690 75 -77 143 -151 152 -165 19 -28 22 -97 6 -132 -5 -13 -26 -34 -45
-47 -28 -20 -43 -23 -86 -19 l-51 5 -156 159 c-145 148 -472 487 -776 804
-127 133 -173 176 -179 169 -2 -2 -9 -337 -15 -744 -7 -407 -17 -766 -21 -799
-10 -62 -27 -89 -72 -112 -61 -32 -142 -5 -174 58 -16 30 -16 83 -5 753 6 396
14 747 16 781 3 33 2 63 -2 67 -3 4 -31 -17 -62 -45 -68 -63 -492 -470 -690
-663 -79 -77 -152 -147 -161 -155 -9 -8 -67 -63 -128 -122 l-111 -108 -58 0
c-46 0 -63 5 -85 23 -33 29 -48 65 -48 120 0 41 4 46 163 202 89 88 199 194
242 235 44 41 197 188 340 327 143 138 290 279 328 314 37 34 67 68 67 74 0 9
-116 14 -462 20 -1022 16 -1112 19 -1142 38 -37 25 -66 75 -66 116 0 42 33 97
70 116 35 18 202 19 790 5 561 -13 808 -15 815 -8 5 5 -355 385 -585 618 -181
184 -487 506 -497 523 -7 12 -12 43 -13 70 0 40 5 53 34 85 33 35 38 37 96 37
l61 0 132 -135 c147 -150 603 -622 656 -679 127 -136 312 -321 321 -321 6 0
10 45 11 123 0 67 6 419 12 782 12 629 13 662 32 694 41 69 132 89 194 43z
m1092 -285 c55 -30 97 -88 105 -148 6 -46 6 -47 -26 -54 -37 -8 -49 -20 -614
-565 -213 -206 -401 -385 -417 -398 l-29 -23 0 75 0 76 108 147 c59 82 173
237 252 346 351 481 382 521 430 545 60 30 133 30 191 -1z m-2702 -432 c11
-25 26 -51 33 -59 339 -345 942 -975 947 -988 2 -7 -3 -9 -13 -5 -10 4 -43 7
-74 7 l-57 0 -295 216 c-162 119 -329 240 -370 270 -298 213 -355 259 -377
304 -29 57 -31 136 -3 190 30 60 102 108 162 109 23 1 30 -6 47 -44z m3451
-797 c90 -46 132 -156 96 -252 -9 -24 -25 -51 -36 -61 -18 -16 -22 -16 -60 -1
-35 14 -137 18 -735 28 -382 7 -695 15 -695 19 0 3 24 28 53 55 l52 50 115 17
c102 16 433 68 890 141 203 32 263 32 320 4z m-3917 -633 c28 -11 131 -17 499
-25 254 -5 560 -10 678 -11 118 -1 227 -4 241 -8 26 -6 25 -6 -26 -53 l-51
-47 -160 -25 c-147 -24 -624 -98 -943 -147 -155 -24 -202 -20 -259 22 -91 67
-110 208 -40 297 13 15 18 15 61 -3z m3039 -367 c227 -165 445 -324 483 -351
99 -71 125 -96 146 -142 49 -106 -2 -233 -113 -279 -55 -24 -74 -20 -88 15
-18 43 -59 90 -228 264 -288 296 -601 621 -717 743 l-49 52 76 0 77 0 413
-302z m-1297 -60 l-7 -72 -176 -241 c-96 -132 -258 -353 -359 -491 -101 -139
-199 -266 -218 -282 -33 -30 -89 -52 -130 -52 -96 0 -205 98 -205 184 0 20 9
29 45 45 30 13 95 69 193 163 81 79 206 200 277 268 72 69 193 186 270 260
273 265 300 290 309 290 5 0 5 -32 1 -72z m575 -345 c102 -645 140 -901 140
-934 -1 -99 -103 -199 -205 -199 -37 0 -95 21 -121 43 -24 21 -25 23 -10 59
13 31 18 132 26 605 6 312 13 628 16 702 l6 134 50 -50 49 -49 49 -311z"/>
</g>
</svg>
