<?xml version="1.0" standalone="no"?>
<!DOCTYPE svg PUBLIC "-//W3C//DTD SVG 20010904//EN"
 "http://www.w3.org/TR/2001/REC-SVG-20010904/DTD/svg10.dtd">
<svg version="1.0" xmlns="http://www.w3.org/2000/svg"
 width="211.000000pt" height="238.000000pt" viewBox="0 0 211.000000 238.000000"
 preserveAspectRatio="xMidYMid meet">
<metadata>
Created by potrace 1.10, written by Peter Selinger 2001-2011
</metadata>
<g transform="translate(0.000000,238.000000) scale(0.100000,-0.100000)"
fill="#000000" stroke="none">
<path d="M949 2347 c-60 -40 -60 -43 -28 -347 15 -151 30 -284 33 -296 14 -55
136 -69 182 -22 21 21 25 44 48 281 32 321 33 338 4 364 -39 35 -64 43 -136
43 -55 0 -76 -5 -103 -23z m178 -17 c29 -13 44 -27 49 -44 6 -24 -10 -227 -38
-471 -6 -55 -17 -106 -24 -114 -17 -19 -101 -19 -119 0 -10 9 -20 65 -30 164
-8 83 -20 191 -25 242 -15 137 -13 187 8 206 44 40 114 47 179 17z"/>
<path d="M115 1868 c-35 -19 -66 -52 -86 -90 -21 -41 -26 -127 -8 -159 6 -12
166 -98 407 -218 218 -109 397 -202 397 -206 0 -4 -179 -97 -397 -206 -241
-120 -401 -206 -407 -218 -16 -30 -13 -118 5 -154 33 -65 88 -107 141 -107 19
0 144 78 424 265 218 146 404 274 412 283 64 71 59 224 -9 284 -10 9 -196 134
-412 277 -399 265 -419 276 -467 249z m131 -60 c38 -23 71 -45 72 -50 2 -4 7
-8 12 -8 7 0 202 -128 227 -150 7 -5 14 -10 17 -10 2 0 57 -36 121 -80 64 -44
118 -80 120 -80 5 0 97 -63 137 -94 65 -49 85 -142 49 -223 -18 -38 -52 -64
-420 -309 l-401 -267 -40 12 c-45 13 -81 55 -102 117 -28 80 -33 76 405 296
217 109 397 205 404 216 10 16 8 23 -9 42 -11 12 -194 108 -405 213 -449 223
-436 212 -387 313 29 59 78 104 114 104 9 0 47 -19 86 -42z"/>
<path d="M1904 1867 c-11 -7 -120 -84 -242 -171 -239 -172 -246 -179 -222
-251 13 -41 62 -85 94 -85 27 0 522 223 548 247 25 23 25 121 -1 171 -42 81
-121 122 -177 89z m79 -32 c37 -15 62 -45 90 -107 21 -45 21 -57 -1 -85 -13
-17 -237 -133 -256 -133 -5 0 -217 -98 -238 -110 -29 -16 -54 -11 -81 15 -34
35 -40 83 -13 109 54 53 437 326 456 326 4 0 23 -7 43 -15z"/>
<path d="M1481 994 c-34 -28 -57 -89 -48 -126 5 -18 76 -74 249 -197 223 -159
245 -172 276 -167 46 7 98 49 123 98 28 55 29 142 2 170 -26 25 -518 248 -549
248 -12 0 -36 -12 -53 -26z m271 -95 c297 -133 302 -136 326 -168 l22 -30 -21
-38 c-47 -85 -63 -104 -95 -118 -44 -18 -66 -10 -158 58 -38 29 -80 59 -92 67
-60 40 -150 104 -154 110 -3 3 -26 21 -52 39 -48 32 -66 55 -62 79 1 6 2 19 3
27 1 20 49 65 67 65 8 0 105 -41 216 -91z"/>
<path d="M994 716 c-17 -7 -34 -22 -38 -32 -7 -18 -54 -472 -58 -561 -4 -71
54 -113 157 -113 96 0 160 42 158 103 -1 18 -13 151 -28 297 -24 244 -28 267
-50 289 -28 29 -97 37 -141 17z m122 -38 c20 -20 71 -559 56 -592 -23 -51
-125 -71 -191 -38 -55 27 -56 35 -42 199 21 240 40 413 47 424 18 30 103 34
130 7z"/>
</g>
</svg>
